<svg aria-hidden="true" style="position: absolute; width: 0; height: 0; overflow: hidden;" version="1.1" xmlns="http://www.w3.org/2000/svg" xmlns:xlink="http://www.w3.org/1999/xlink">
<defs>
<symbol id="icon-vectorred" viewBox="0 0 20 32">
<path fill="none" stroke="#d41443" style="stroke: var(--color1, #d41443)" stroke-linejoin="round" stroke-linecap="round" stroke-miterlimit="4" stroke-width="6.3949" d="M3.203 3.197l13.685 12.79-13.685 12.79"></path>
</symbol>
<symbol id="icon-vector" viewBox="0 0 21 32">
<path fill="none" stroke="#fff" style="stroke: var(--color2, #fff)" stroke-linejoin="round" stroke-linecap="round" stroke-miterlimit="4" stroke-width="6.3949" d="M3.201 3.197l14.165 12.79-14.165 12.79"></path>
</symbol>
<symbol id="icon-github" viewBox="0 0 32 32">
<path fill="#fea5bb" style="fill: var(--color3, #fea5bb)" d="M32 16c0 8.837-7.163 16-16 16s-16-7.163-16-16c0-8.837 7.163-16 16-16s16 7.163 16 16z"></path>
<path fill="#fff" style="fill: var(--color2, #fff)" d="M16 6.588c-5.17 0-9.412 4.242-9.412 9.412 0 4.411 3.096 8.419 7.206 9.412v-3.113c-0.408 0.088-0.781 0.091-1.196-0.031-0.556-0.164-1.008-0.535-1.344-1.099-0.214-0.36-0.593-0.753-0.988-0.724l-0.097-1.098c0.856-0.073 1.594 0.521 2.033 1.258 0.196 0.328 0.421 0.52 0.709 0.605 0.278 0.083 0.577 0.043 0.925-0.080 0.088-0.697 0.408-0.958 0.649-1.327-2.452-0.365-3.429-1.666-3.816-2.692-0.514-1.364-0.238-3.066 0.67-4.143 0.018-0.021 0.050-0.075 0.038-0.113-0.417-1.259 0.090-2.3 0.109-2.41 0.481 0.141 0.559-0.143 2.089 0.786l0.264 0.159c0.111 0.066 0.075 0.028 0.186 0.019 0.59-0.166 1.269-0.266 1.97-0.276l0.006-0c0.668 0.008 1.336 0.104 2.002 0.284l0.086 0.009c-0.008-0.002 0.024-0.006 0.075-0.037 1.911-1.158 1.842-0.779 2.355-0.946 0.019 0.111 0.519 1.169 0.106 2.411-0.056 0.171 1.656 1.739 0.708 4.256-0.388 1.026-1.365 2.328-3.816 2.693 0.314 0.48 0.692 0.734 0.69 1.722v3.886c4.109-0.993 7.206-5 7.206-9.412 0-5.17-4.242-9.412-9.412-9.412z"></path>
</symbol>
<symbol id="icon-telegram" viewBox="0 0 32 32">
<path fill="#fea5bb" style="fill: var(--color3, #fea5bb)" d="M32 16c0 8.837-7.163 16-16 16s-16-7.163-16-16c0-8.837 7.163-16 16-16s16 7.163 16 16z"></path>
<path fill="#fff" style="fill: var(--color2, #fff)" d="M12.867 18.376l-0.317 4.169c0.455 0 0.651-0.183 0.888-0.401l2.13-1.901 4.414 3.018c0.809 0.421 1.381 0.199 1.6-0.696l2.897-12.673c0.258-1.117-0.433-1.554-1.221-1.28l-17.032 6.086c-1.162 0.422-1.145 1.026-0.198 1.301l4.355 1.264 10.114-5.907c0.476-0.295 0.909-0.132 0.553 0.163l-8.182 6.856z"></path>
</symbol>
<symbol id="icon-facebook" viewBox="0 0 32 32">
<path fill="#fea5bb" style="fill: var(--color3, #fea5bb)" d="M16 32c8.837 0 16-7.163 16-16s-7.163-16-16-16-16 7.163-16 16 7.163 16 16 16z"></path>
<path fill="#fff" style="fill: var(--color2, #fff)" d="M20.446 15.981h-2.611v9.619h-3.955v-9.619h-1.88v-3.379h1.88v-2.187c0-1.564 0.739-4.014 3.991-4.014l2.929 0.012v3.281h-2.125c-0.348 0-0.839 0.176-0.839 0.922v1.989h2.955l-0.345 3.377z"></path>
</symbol>
<symbol id="icon-gitgit" viewBox="0 0 32 32">
<path fill="#fff" style="fill: var(--color1, #fff)" d="M16 0c-8.8 0-16 7.2-16 16 0 7.488 5.248 14.304 12.24 16v-5.296c-0.688 0.144-1.328 0.144-2.032-0.064-0.944-0.272-1.712-0.896-2.288-1.856-0.368-0.624-1.008-1.28-1.68-1.232l-0.16-1.872c1.456-0.128 2.704 0.88 3.456 2.144 0.336 0.56 0.72 0.88 1.2 1.024s0.992 0.080 1.584-0.128c0.144-1.2 0.688-1.632 1.088-2.256-4.16-0.624-5.824-2.832-6.48-4.592-0.88-2.304-0.4-5.2 1.136-7.040 0.032-0.032 0.080-0.128 0.064-0.192-0.704-2.128 0.16-3.904 0.192-4.096 0.816 0.24 0.944-0.24 3.552 1.344l0.448 0.272c0.192 0.112 0.128 0.048 0.32 0.032 0.998-0.29 2.148-0.464 3.335-0.48l0.009-0c1.152 0.016 2.288 0.176 3.408 0.48l0.144 0.016s0.048 0 0.128-0.048c3.248-1.968 3.136-1.328 4-1.616 0.032 0.192 0.896 1.984 0.192 4.096-0.096 0.288 2.816 2.96 1.2 7.232-0.656 1.76-2.32 3.968-6.48 4.592 0.528 0.8 1.168 1.248 1.168 2.928v6.608c6.992-1.696 12.24-8.512 12.24-16 0.016-8.8-7.2-16-15.984-16z"></path>
</symbol>
<symbol id="icon-tgtg" viewBox="0 0 41 32">
<path fill="#fff" style="fill: var(--color1, #fff)" d="M16.135 21.083l-0.686 8.935c0.988 0 1.392-0.383 1.896-0.847l4.578-4.074 9.459 6.454c1.735 0.908 2.965 0.424 3.429-1.493l6.212-27.148c0.545-2.4-0.928-3.328-2.622-2.743l-36.506 13.049c-2.481 0.887-2.44 2.198-0.424 2.783l9.338 2.703 21.682-12.666c1.008-0.625 1.936-0.282 1.17 0.363l-17.527 14.683z"></path>
</symbol>
<symbol id="icon-faceface" viewBox="0 0 15 32">
<path fill="#fff" style="fill: var(--color1, #fff)" d="M14.076 15.97h-4.345v16.017h-6.604v-16.017h-3.122v-5.648h3.122v-3.639c0-2.604 1.239-6.683 6.651-6.683l4.879 0.016v5.459h-3.53c-0.58 0-1.396 0.298-1.396 1.537v3.326h4.926l-0.58 5.632z"></path>
</symbol>
</defs>
</svg>
