<svg aria-hidden="true" style="width:0;height:0;position:absolute;overflow:hidden" xmlns="http://www.w3.org/2000/svg"><defs><symbol id="icon-vectorred" viewBox="0 0 20 32"><path fill="none" stroke="#d41443" style="stroke:var(--color1,#d41443)" stroke-linejoin="round" stroke-linecap="round" stroke-width="6.395" d="m3.203 3.197 13.685 12.79-13.685 12.79"/></symbol><symbol id="icon-vector" viewBox="0 0 21 32"><path fill="none" stroke="#fff" style="stroke:var(--color2,#fff)" stroke-linejoin="round" stroke-linecap="round" stroke-width="6.395" d="m3.201 3.197 14.165 12.79-14.165 12.79"/></symbol><symbol id="icon-github" viewBox="0 0 32 32"><path fill="#fea5bb" style="fill:var(--color3,#fea5bb)" d="M32 16c0 8.837-7.163 16-16 16S0 24.837 0 16 7.163 0 16 0s16 7.163 16 16z"/><path fill="#fff" style="fill:var(--color2,#fff)" d="M16 6.588c-5.17 0-9.412 4.242-9.412 9.412 0 4.411 3.096 8.419 7.206 9.412v-3.113a2.314 2.314 0 0 1-1.196-.031c-.556-.164-1.008-.535-1.344-1.099-.214-.36-.593-.753-.988-.724l-.097-1.098c.856-.073 1.594.521 2.033 1.258.196.328.421.52.709.605.278.083.577.043.925-.08.088-.697.408-.958.649-1.327-2.452-.365-3.429-1.666-3.816-2.692-.514-1.364-.238-3.066.67-4.143.018-.021.05-.075.038-.113-.417-1.259.09-2.3.109-2.41.481.141.559-.143 2.089.786l.264.159c.111.066.075.028.186.019a7.787 7.787 0 0 1 1.97-.276h.006a8.021 8.021 0 0 1 2.002.284l.086.009c-.008-.002.024-.006.075-.037 1.911-1.158 1.842-.779 2.355-.946.019.111.519 1.169.106 2.411-.056.171 1.656 1.739.708 4.256-.388 1.026-1.365 2.328-3.816 2.693.314.48.692.734.69 1.722v3.886c4.109-.993 7.206-5 7.206-9.412 0-5.17-4.242-9.412-9.412-9.412z"/></symbol><symbol id="icon-telegram" viewBox="0 0 32 32"><path fill="#fea5bb" style="fill:var(--color3,#fea5bb)" d="M32 16c0 8.837-7.163 16-16 16S0 24.837 0 16 7.163 0 16 0s16 7.163 16 16z"/><path fill="#fff" style="fill:var(--color2,#fff)" d="m12.867 18.376-.317 4.169c.455 0 .651-.183.888-.401l2.13-1.901 4.414 3.018c.809.421 1.381.199 1.6-.696l2.897-12.673c.258-1.117-.433-1.554-1.221-1.28L6.226 14.698c-1.162.422-1.145 1.026-.198 1.301l4.355 1.264 10.114-5.907c.476-.295.909-.132.553.163l-8.182 6.856z"/></symbol><symbol id="icon-facebook" viewBox="0 0 32 32"><path fill="#fea5bb" style="fill:var(--color3,#fea5bb)" d="M16 32c8.837 0 16-7.163 16-16S24.837 0 16 0 0 7.163 0 16s7.163 16 16 16z"/><path fill="#fff" style="fill:var(--color2,#fff)" d="M20.446 15.981h-2.611V25.6H13.88v-9.619H12v-3.379h1.88v-2.187c0-1.564.739-4.014 3.991-4.014l2.929.012v3.281h-2.125c-.348 0-.839.176-.839.922v1.989h2.955l-.345 3.377z"/></symbol><symbol id="icon-gitgit" viewBox="0 0 32 32"><path fill="#fff" style="fill:var(--color1,#fff)" d="M16 0C7.2 0 0 7.2 0 16c0 7.488 5.248 14.304 12.24 16v-5.296c-.688.144-1.328.144-2.032-.064-.944-.272-1.712-.896-2.288-1.856-.368-.624-1.008-1.28-1.68-1.232l-.16-1.872c1.456-.128 2.704.88 3.456 2.144.336.56.72.88 1.2 1.024s.992.08 1.584-.128c.144-1.2.688-1.632 1.088-2.256-4.16-.624-5.824-2.832-6.48-4.592-.88-2.304-.4-5.2 1.136-7.04.032-.032.08-.128.064-.192-.704-2.128.16-3.904.192-4.096.816.24.944-.24 3.552 1.344l.448.272c.192.112.128.048.32.032.998-.29 2.148-.464 3.335-.48h.009c1.152.016 2.288.176 3.408.48l.144.016s.048 0 .128-.048c3.248-1.968 3.136-1.328 4-1.616.032.192.896 1.984.192 4.096-.096.288 2.816 2.96 1.2 7.232-.656 1.76-2.32 3.968-6.48 4.592.528.8 1.168 1.248 1.168 2.928V32c6.992-1.696 12.24-8.512 12.24-16C32 7.2 24.784 0 16 0z"/></symbol><symbol id="icon-tgtg" viewBox="0 0 41 32"><path fill="#fff" style="fill:var(--color1,#fff)" d="m16.135 21.083-.686 8.935c.988 0 1.392-.383 1.896-.847l4.578-4.074 9.459 6.454c1.735.908 2.965.424 3.429-1.493L41.023 2.91c.545-2.4-.928-3.328-2.622-2.743L1.895 13.216c-2.481.887-2.44 2.198-.424 2.783l9.338 2.703L32.491 6.036c1.008-.625 1.936-.282 1.17.363L16.134 21.082z"/></symbol><symbol id="icon-faceface" viewBox="0 0 15 32"><path fill="#fff" style="fill:var(--color1,#fff)" d="M14.076 15.97H9.731v16.017H3.127V15.97H.005v-5.648h3.122V6.683C3.127 4.079 4.366 0 9.778 0l4.879.016v5.459h-3.53c-.58 0-1.396.298-1.396 1.537v3.326h4.926l-.58 5.632z"/></symbol></defs></svg>